<?xml version="1.0" encoding="UTF-8" standalone="no"?>
<!-- Created with Inkscape (http://www.inkscape.org/) -->

<svg
   width="210mm"
   height="297mm"
   viewBox="0 0 210 297"
   version="1.1"
   id="svg5"
   inkscape:version="1.1.2 (0a00cf5339, 2022-02-04)"
   sodipodi:docname="chess.svg"
   xmlns:inkscape="http://www.inkscape.org/namespaces/inkscape"
   xmlns:sodipodi="http://sodipodi.sourceforge.net/DTD/sodipodi-0.dtd"
   xmlns="http://www.w3.org/2000/svg"
   xmlns:svg="http://www.w3.org/2000/svg">
  <sodipodi:namedview
     id="namedview7"
     pagecolor="#ffffff"
     bordercolor="#666666"
     borderopacity="1.0"
     inkscape:pageshadow="2"
     inkscape:pageopacity="0.0"
     inkscape:pagecheckerboard="0"
     inkscape:document-units="mm"
     showgrid="true"
     inkscape:snap-grids="true"
     inkscape:zoom="3.2658622"
     inkscape:cx="217.70667"
     inkscape:cy="410.15202"
     inkscape:window-width="1908"
     inkscape:window-height="1166"
     inkscape:window-x="5"
     inkscape:window-y="27"
     inkscape:window-maximized="0"
     inkscape:current-layer="layer1">
    <inkscape:grid
       type="xygrid"
       id="grid79" />
  </sodipodi:namedview>
  <defs
     id="defs2" />
  <g
     inkscape:label="Layer 1"
     inkscape:groupmode="layer"
     id="layer1">
    <path
       style="fill:#000000;stroke:#ffffff;stroke-width:0.264583px;stroke-linecap:butt;stroke-linejoin:miter;stroke-opacity:1"
       d="m 67.46875,115.09375 v 1.32292 h 2.645833 v -1.32292 h 2.645833 v 1.32292 h 2.645834 v -1.32292 h 1.322916 v 2.64583 H 75.40625 v 6.61459 h 1.322916 v 1.32291 H 66.145833 v -1.32291 h 1.322917 v -6.61459 h -1.322917 v -2.64583 h 1.322917"
       id="path757"
       inkscape:export-filename="/home/neosapien/development/gitrepos/chess/assets/bR.png"
       inkscape:export-xdpi="234.14635"
       inkscape:export-ydpi="234.14635" />
    <path
       style="fill:#000000;stroke:#ffffff;stroke-width:0.264583px;stroke-linecap:butt;stroke-linejoin:miter;stroke-opacity:1"
       d="m 79.375,115.09375 -1.322917,7.9375 H 79.375 v 1.32292 h -1.322917 v 1.32291 h 10.583333 v -1.32291 H 87.3125 v -1.32292 h 1.322916 l -1.322916,-7.9375 -1.322917,6.61458 -1.322917,-6.61458 -1.322916,6.61458 -1.322917,-6.61458 -1.322917,6.61458 -1.322916,-6.61458"
       id="path1124"
       inkscape:export-filename="/home/neosapien/development/gitrepos/chess/assets/bQ.png"
       inkscape:export-xdpi="233.1205"
       inkscape:export-ydpi="233.1205" />
    <path
       style="fill:#000000;stroke:#ffffff;stroke-width:0.264583px;stroke-linecap:butt;stroke-linejoin:miter;stroke-opacity:1"
       d="m 78.052083,137.58333 v -1.32291 H 79.375 v -1.32292 h -1.322917 v -2.64583 L 83.34375,127 l 5.291666,5.29167 v 2.64583 H 87.3125 v 1.32292 h 1.322916 v 1.32291 z"
       id="path1305"
       inkscape:export-filename="/home/neosapien/development/gitrepos/chess/assets/bK.png"
       inkscape:export-xdpi="234.14635"
       inkscape:export-ydpi="234.14635" />
    <path
       style="fill:#000000;stroke:#ffffff;stroke-width:0.264583px;stroke-linecap:butt;stroke-linejoin:miter;stroke-opacity:1"
       d="m 66.145834,137.58333 v -1.32291 h 1.322917 v -1.32292 h -1.322917 l 2.645833,-2.64583 H 66.145834 L 71.437501,127 l 5.291666,5.29167 h -2.645833 l 2.645833,2.64583 h -1.322916 v 1.32292 h 1.322916 v 1.32291 H 66.145834"
       id="path1486"
       inkscape:export-filename="/home/neosapien/development/gitrepos/chess/assets/bB.png"
       inkscape:export-xdpi="226.33929"
       inkscape:export-ydpi="226.33929" />
    <path
       style="fill:#000000;stroke:#ffffff;stroke-width:0.264583px;stroke-linecap:butt;stroke-linejoin:miter;stroke-opacity:1"
       d="m 54.239584,132.29167 v -2.64584 L 59.53125,128.32292 60.854167,127 v 1.32292 7.9375 H 63.5 v 1.32291 H 52.916667 v -1.32291 h 3.96875 v -3.96875 z"
       id="path1702"
       inkscape:export-filename="/home/neosapien/development/gitrepos/chess/assets/bN.png"
       inkscape:export-xdpi="234.14635"
       inkscape:export-ydpi="234.14635" />
    <path
       style="fill:#000000;stroke:#ffffff;stroke-width:0.264583px;stroke-linecap:butt;stroke-linejoin:miter;stroke-opacity:1"
       d="m 52.916667,149.48958 v -1.32291 h 3.96875 v -3.96875 H 55.5625 v -2.64584 h 1.322917 v -1.32291 l 1.322917,-1.32292 1.322916,1.32292 v 1.32291 h 1.322917 v 2.64584 H 59.53125 v 3.96875 H 63.5 v 1.32291 H 52.916667"
       id="path4289"
       inkscape:export-filename="/home/neosapien/development/gitrepos/chess/assets/bP.png"
       inkscape:export-xdpi="234.14635"
       inkscape:export-ydpi="234.14635" />
  </g>
</svg>
